<mxfile host="app.diagrams.net" modified="2024-01-03T18:16:47.479Z" agent="Mozilla/5.0 (Windows NT 10.0; Win64; x64; rv:109.0) Gecko/20100101 Firefox/115.0" etag="HKSPE6dwGx46ihOW2cym" version="22.1.16" type="device">
  <diagram name="Page-1" id="MXo8WvmFtB4NtD6B0jq-">
    <mxGraphModel dx="2074" dy="1114" grid="1" gridSize="10" guides="1" tooltips="1" connect="1" arrows="1" fold="1" page="1" pageScale="1" pageWidth="850" pageHeight="1100" math="0" shadow="0">
      <root>
        <mxCell id="0" />
        <mxCell id="1" parent="0" />
        <mxCell id="4ADtQTloVEQFd8bmwQQQ-1" value="" style="ellipse;whiteSpace=wrap;html=1;aspect=fixed;fillColor=#000000;" parent="1" vertex="1">
          <mxGeometry x="220" y="370" width="30" height="30" as="geometry" />
        </mxCell>
        <mxCell id="4ADtQTloVEQFd8bmwQQQ-2" value="" style="endArrow=none;html=1;rounded=0;strokeWidth=7;" parent="1" source="4ADtQTloVEQFd8bmwQQQ-3" edge="1">
          <mxGeometry width="50" height="50" relative="1" as="geometry">
            <mxPoint x="120" y="520" as="sourcePoint" />
            <mxPoint x="230" y="390" as="targetPoint" />
          </mxGeometry>
        </mxCell>
        <mxCell id="4ADtQTloVEQFd8bmwQQQ-5" value="" style="endArrow=none;html=1;rounded=0;strokeWidth=7;" parent="1" target="4ADtQTloVEQFd8bmwQQQ-3" edge="1">
          <mxGeometry width="50" height="50" relative="1" as="geometry">
            <mxPoint x="120" y="520" as="sourcePoint" />
            <mxPoint x="230" y="390" as="targetPoint" />
          </mxGeometry>
        </mxCell>
        <mxCell id="4ADtQTloVEQFd8bmwQQQ-3" value="" style="ellipse;whiteSpace=wrap;html=1;aspect=fixed;fillColor=#000000;" parent="1" vertex="1">
          <mxGeometry x="110" y="500" width="30" height="30" as="geometry" />
        </mxCell>
        <mxCell id="4ADtQTloVEQFd8bmwQQQ-6" value="" style="endArrow=none;html=1;rounded=0;strokeWidth=7;" parent="1" edge="1">
          <mxGeometry width="50" height="50" relative="1" as="geometry">
            <mxPoint x="240" y="384" as="sourcePoint" />
            <mxPoint x="420" y="370" as="targetPoint" />
          </mxGeometry>
        </mxCell>
        <mxCell id="4ADtQTloVEQFd8bmwQQQ-7" value="" style="ellipse;whiteSpace=wrap;html=1;aspect=fixed;fillColor=#000000;" parent="1" vertex="1">
          <mxGeometry x="407" y="356" width="30" height="30" as="geometry" />
        </mxCell>
        <mxCell id="4ADtQTloVEQFd8bmwQQQ-8" value="" style="endArrow=none;html=1;rounded=0;strokeWidth=7;" parent="1" source="4ADtQTloVEQFd8bmwQQQ-9" edge="1">
          <mxGeometry width="50" height="50" relative="1" as="geometry">
            <mxPoint x="420" y="370" as="sourcePoint" />
            <mxPoint x="480" y="520" as="targetPoint" />
          </mxGeometry>
        </mxCell>
        <mxCell id="4ADtQTloVEQFd8bmwQQQ-10" value="" style="endArrow=none;html=1;rounded=0;strokeWidth=7;dashed=1;dashPattern=1 2;strokeColor=#0000CC;" parent="1" target="4ADtQTloVEQFd8bmwQQQ-9" edge="1">
          <mxGeometry width="50" height="50" relative="1" as="geometry">
            <mxPoint x="420" y="370" as="sourcePoint" />
            <mxPoint x="480" y="520" as="targetPoint" />
          </mxGeometry>
        </mxCell>
        <mxCell id="4ADtQTloVEQFd8bmwQQQ-9" value="" style="ellipse;whiteSpace=wrap;html=1;aspect=fixed;fillColor=#000000;" parent="1" vertex="1">
          <mxGeometry x="470" y="500" width="30" height="30" as="geometry" />
        </mxCell>
        <mxCell id="4ADtQTloVEQFd8bmwQQQ-11" value="" style="endArrow=none;html=1;rounded=0;strokeWidth=7;dashed=1;dashPattern=1 2;strokeColor=#0000FF;" parent="1" source="4ADtQTloVEQFd8bmwQQQ-3" target="4ADtQTloVEQFd8bmwQQQ-9" edge="1">
          <mxGeometry width="50" height="50" relative="1" as="geometry">
            <mxPoint x="145" y="514" as="sourcePoint" />
            <mxPoint x="240" y="400" as="targetPoint" />
          </mxGeometry>
        </mxCell>
        <mxCell id="4ADtQTloVEQFd8bmwQQQ-12" value="" style="endArrow=classic;html=1;rounded=0;strokeColor=#9933FF;strokeWidth=7;" parent="1" edge="1">
          <mxGeometry width="50" height="50" relative="1" as="geometry">
            <mxPoint x="124" y="519" as="sourcePoint" />
            <mxPoint x="84" y="569" as="targetPoint" />
          </mxGeometry>
        </mxCell>
        <mxCell id="4ADtQTloVEQFd8bmwQQQ-13" value="" style="endArrow=classic;html=1;rounded=0;strokeColor=#9933FF;strokeWidth=7;" parent="1" edge="1">
          <mxGeometry width="50" height="50" relative="1" as="geometry">
            <mxPoint x="236" y="383" as="sourcePoint" />
            <mxPoint x="196" y="433" as="targetPoint" />
          </mxGeometry>
        </mxCell>
        <mxCell id="4ADtQTloVEQFd8bmwQQQ-14" value="" style="endArrow=classic;html=1;rounded=0;strokeColor=#804040;strokeWidth=7;" parent="1" edge="1">
          <mxGeometry width="50" height="50" relative="1" as="geometry">
            <mxPoint x="420" y="370" as="sourcePoint" />
            <mxPoint x="380" y="420" as="targetPoint" />
          </mxGeometry>
        </mxCell>
        <mxCell id="4ADtQTloVEQFd8bmwQQQ-15" value="" style="endArrow=classic;html=1;rounded=0;strokeColor=#00FFFF;strokeWidth=7;" parent="1" edge="1">
          <mxGeometry width="50" height="50" relative="1" as="geometry">
            <mxPoint x="486" y="514" as="sourcePoint" />
            <mxPoint x="446" y="564" as="targetPoint" />
          </mxGeometry>
        </mxCell>
        <mxCell id="4ADtQTloVEQFd8bmwQQQ-24" value="&lt;font style=&quot;font-size: 30px;&quot;&gt;&lt;b&gt;&lt;i style=&quot;&quot;&gt;&lt;font style=&quot;font-size: 30px;&quot; color=&quot;#6600cc&quot;&gt;{s}&lt;/font&gt;&lt;/i&gt;&lt;/b&gt;&lt;/font&gt;" style="text;html=1;strokeColor=none;fillColor=none;align=center;verticalAlign=middle;whiteSpace=wrap;rounded=0;" parent="1" vertex="1">
          <mxGeometry x="317" y="545" width="60" height="30" as="geometry" />
        </mxCell>
        <mxCell id="4ADtQTloVEQFd8bmwQQQ-25" value="&lt;font style=&quot;font-size: 30px;&quot;&gt;&lt;b&gt;&lt;i style=&quot;&quot;&gt;&lt;font style=&quot;font-size: 30px;&quot; color=&quot;#6600cc&quot;&gt;S1&lt;/font&gt;&lt;/i&gt;&lt;/b&gt;&lt;/font&gt;" style="text;html=1;strokeColor=none;fillColor=none;align=center;verticalAlign=middle;whiteSpace=wrap;rounded=0;" parent="1" vertex="1">
          <mxGeometry x="120" y="535" width="60" height="30" as="geometry" />
        </mxCell>
        <mxCell id="4ADtQTloVEQFd8bmwQQQ-26" value="&lt;font style=&quot;font-size: 30px;&quot;&gt;&lt;b&gt;&lt;i style=&quot;&quot;&gt;&lt;font style=&quot;font-size: 30px;&quot; color=&quot;#6600cc&quot;&gt;S2&lt;/font&gt;&lt;/i&gt;&lt;/b&gt;&lt;/font&gt;" style="text;html=1;strokeColor=none;fillColor=none;align=center;verticalAlign=middle;whiteSpace=wrap;rounded=0;" parent="1" vertex="1">
          <mxGeometry x="240" y="400" width="60" height="30" as="geometry" />
        </mxCell>
        <mxCell id="4ADtQTloVEQFd8bmwQQQ-27" value="&lt;font style=&quot;font-size: 30px;&quot;&gt;&lt;b&gt;&lt;i style=&quot;&quot;&gt;&lt;font style=&quot;font-size: 30px;&quot;&gt;S3&lt;/font&gt;&lt;/i&gt;&lt;/b&gt;&lt;/font&gt;" style="text;html=1;strokeColor=none;fillColor=none;align=center;verticalAlign=middle;whiteSpace=wrap;rounded=0;fontColor=#804040;" parent="1" vertex="1">
          <mxGeometry x="377" y="420" width="60" height="30" as="geometry" />
        </mxCell>
        <mxCell id="4ADtQTloVEQFd8bmwQQQ-28" value="&lt;font style=&quot;font-size: 30px;&quot;&gt;&lt;b&gt;&lt;i style=&quot;&quot;&gt;&lt;font style=&quot;font-size: 30px;&quot;&gt;S4&lt;/font&gt;&lt;/i&gt;&lt;/b&gt;&lt;/font&gt;" style="text;html=1;strokeColor=none;fillColor=none;align=center;verticalAlign=middle;whiteSpace=wrap;rounded=0;fontColor=#00FFFF;" parent="1" vertex="1">
          <mxGeometry x="480" y="540" width="60" height="30" as="geometry" />
        </mxCell>
        <mxCell id="ixFv_eq0xDLkICeUzkF--1" value="" style="group" vertex="1" connectable="0" parent="1">
          <mxGeometry x="270" y="530" width="40" height="56" as="geometry" />
        </mxCell>
        <mxCell id="ixFv_eq0xDLkICeUzkF--2" value="" style="endArrow=none;html=1;rounded=0;strokeWidth=7;strokeColor=#ff0000;" edge="1" parent="ixFv_eq0xDLkICeUzkF--1">
          <mxGeometry width="50" height="50" relative="1" as="geometry">
            <mxPoint x="38.0327868852459" y="39.66666666666667" as="sourcePoint" />
            <mxPoint y="23.333333333333336" as="targetPoint" />
          </mxGeometry>
        </mxCell>
        <mxCell id="ixFv_eq0xDLkICeUzkF--3" value="" style="endArrow=none;html=1;rounded=0;strokeWidth=7;strokeColor=#00ff00;" edge="1" parent="ixFv_eq0xDLkICeUzkF--1">
          <mxGeometry width="50" height="50" relative="1" as="geometry">
            <mxPoint x="40" y="38.5" as="sourcePoint" />
            <mxPoint x="1.9672131147540983" y="56" as="targetPoint" />
          </mxGeometry>
        </mxCell>
        <mxCell id="ixFv_eq0xDLkICeUzkF--4" value="" style="endArrow=none;html=1;rounded=0;strokeWidth=7;strokeColor=#0000ff;" edge="1" parent="ixFv_eq0xDLkICeUzkF--1">
          <mxGeometry width="50" height="50" relative="1" as="geometry">
            <mxPoint x="38.0327868852459" y="40.833333333333336" as="sourcePoint" />
            <mxPoint x="38.0327868852459" as="targetPoint" />
          </mxGeometry>
        </mxCell>
      </root>
    </mxGraphModel>
  </diagram>
</mxfile>
